<mxfile host="app.diagrams.net" agent="Mozilla/5.0 (Windows NT 10.0; Win64; x64) AppleWebKit/537.36 (KHTML, like Gecko) Chrome/129.0.0.0 Safari/537.36" version="27.0.4">
  <diagram name="第 1 页" id="NBELX72EvP4mYWvqCN1p">
    <mxGraphModel dx="1554" dy="856" grid="1" gridSize="10" guides="1" tooltips="1" connect="1" arrows="1" fold="1" page="1" pageScale="1" pageWidth="827" pageHeight="1169" math="0" shadow="0">
      <root>
        <mxCell id="0" />
        <mxCell id="1" parent="0" />
        <mxCell id="X9o5-AmgWms8p3m6Zrc2-3" value="" style="rounded=0;whiteSpace=wrap;html=1;strokeWidth=1;fillColor=none;align=center;" parent="1" vertex="1">
          <mxGeometry x="368" y="280" width="170" height="350" as="geometry" />
        </mxCell>
        <mxCell id="X9o5-AmgWms8p3m6Zrc2-12" value="" style="ellipse;whiteSpace=wrap;html=1;gradientColor=none;fillColor=none;" parent="1" vertex="1">
          <mxGeometry x="378" y="473" width="150" height="100" as="geometry" />
        </mxCell>
        <mxCell id="X9o5-AmgWms8p3m6Zrc2-4" value="&lt;b&gt;数据资源请求者&lt;/b&gt;" style="text;html=1;align=center;verticalAlign=middle;whiteSpace=wrap;rounded=0;" parent="1" vertex="1">
          <mxGeometry x="403" y="124" width="95" height="30" as="geometry" />
        </mxCell>
        <mxCell id="X9o5-AmgWms8p3m6Zrc2-10" value="" style="group" parent="1" vertex="1" connectable="0">
          <mxGeometry x="409" y="259" width="130" height="40" as="geometry" />
        </mxCell>
        <mxCell id="X9o5-AmgWms8p3m6Zrc2-8" value="" style="rounded=0;whiteSpace=wrap;html=1;strokeWidth=1;fillColor=none;align=center;" parent="X9o5-AmgWms8p3m6Zrc2-10" vertex="1">
          <mxGeometry x="-7" y="69" width="130" height="40" as="geometry" />
        </mxCell>
        <mxCell id="X9o5-AmgWms8p3m6Zrc2-9" value="&lt;b&gt;可信应用&lt;/b&gt;" style="text;html=1;align=center;verticalAlign=middle;whiteSpace=wrap;rounded=0;" parent="X9o5-AmgWms8p3m6Zrc2-10" vertex="1">
          <mxGeometry x="29.03" y="77" width="57.94" height="24" as="geometry" />
        </mxCell>
        <mxCell id="X9o5-AmgWms8p3m6Zrc2-13" value="&lt;b&gt;NHP代理&lt;/b&gt;&lt;div&gt;&lt;b&gt;（NHP-Agent）&lt;/b&gt;&lt;/div&gt;" style="text;html=1;align=center;verticalAlign=middle;whiteSpace=wrap;rounded=0;" parent="1" vertex="1">
          <mxGeometry x="393" y="509" width="120" height="30" as="geometry" />
        </mxCell>
        <mxCell id="X9o5-AmgWms8p3m6Zrc2-30" style="edgeStyle=orthogonalEdgeStyle;rounded=0;orthogonalLoop=1;jettySize=auto;html=1;strokeWidth=4;entryX=0.75;entryY=1;entryDx=0;entryDy=0;exitX=0.555;exitY=-0.003;exitDx=0;exitDy=0;exitPerimeter=0;" parent="1" source="X9o5-AmgWms8p3m6Zrc2-24" target="X9o5-AmgWms8p3m6Zrc2-8" edge="1">
          <mxGeometry relative="1" as="geometry">
            <mxPoint x="499" y="350" as="targetPoint" />
            <mxPoint x="500" y="352" as="sourcePoint" />
          </mxGeometry>
        </mxCell>
        <mxCell id="X9o5-AmgWms8p3m6Zrc2-31" value="" style="endArrow=none;dashed=1;html=1;rounded=0;" parent="1" edge="1">
          <mxGeometry width="50" height="50" relative="1" as="geometry">
            <mxPoint x="604" y="890" as="sourcePoint" />
            <mxPoint x="604" y="120" as="targetPoint" />
          </mxGeometry>
        </mxCell>
        <mxCell id="X9o5-AmgWms8p3m6Zrc2-32" value="" style="rounded=0;whiteSpace=wrap;html=1;strokeWidth=1;fillColor=none;align=center;" parent="1" vertex="1">
          <mxGeometry x="712" y="366" width="210" height="230" as="geometry" />
        </mxCell>
        <mxCell id="X9o5-AmgWms8p3m6Zrc2-33" value="&lt;b&gt;NHP服务器/集群&lt;/b&gt;" style="text;html=1;align=center;verticalAlign=middle;whiteSpace=wrap;rounded=0;fontSize=14;" parent="1" vertex="1">
          <mxGeometry x="762" y="391" width="110" height="30" as="geometry" />
        </mxCell>
        <mxCell id="X9o5-AmgWms8p3m6Zrc2-34" value="" style="ellipse;whiteSpace=wrap;html=1;gradientColor=none;fillColor=none;" parent="1" vertex="1">
          <mxGeometry x="742" y="475" width="150" height="96" as="geometry" />
        </mxCell>
        <mxCell id="X9o5-AmgWms8p3m6Zrc2-35" value="&lt;b&gt;NHP服务器&lt;/b&gt;&lt;div&gt;&lt;b&gt;（NHP-Server）&lt;/b&gt;&lt;/div&gt;" style="text;html=1;align=center;verticalAlign=middle;whiteSpace=wrap;rounded=0;" parent="1" vertex="1">
          <mxGeometry x="757.5" y="507" width="120" height="30" as="geometry" />
        </mxCell>
        <mxCell id="X9o5-AmgWms8p3m6Zrc2-37" value="" style="endArrow=classic;startArrow=classic;html=1;rounded=0;exitX=1;exitY=0.5;exitDx=0;exitDy=0;entryX=0;entryY=0.5;entryDx=0;entryDy=0;strokeWidth=2;" parent="1" source="X9o5-AmgWms8p3m6Zrc2-12" target="X9o5-AmgWms8p3m6Zrc2-34" edge="1">
          <mxGeometry width="50" height="50" relative="1" as="geometry">
            <mxPoint x="614" y="490" as="sourcePoint" />
            <mxPoint x="664" y="440" as="targetPoint" />
          </mxGeometry>
        </mxCell>
        <mxCell id="X9o5-AmgWms8p3m6Zrc2-38" value="" style="endArrow=none;dashed=1;html=1;rounded=0;" parent="1" edge="1">
          <mxGeometry width="50" height="50" relative="1" as="geometry">
            <mxPoint x="964" y="890" as="sourcePoint" />
            <mxPoint x="964" y="120" as="targetPoint" />
          </mxGeometry>
        </mxCell>
        <mxCell id="X9o5-AmgWms8p3m6Zrc2-39" value="" style="rounded=0;whiteSpace=wrap;html=1;strokeWidth=1;fillColor=none;align=center;" parent="1" vertex="1">
          <mxGeometry x="662" y="660" width="452" height="210" as="geometry" />
        </mxCell>
        <mxCell id="X9o5-AmgWms8p3m6Zrc2-57" style="edgeStyle=orthogonalEdgeStyle;rounded=0;orthogonalLoop=1;jettySize=auto;html=1;exitX=0.965;exitY=0.305;exitDx=0;exitDy=0;entryX=0;entryY=0.5;entryDx=0;entryDy=0;exitPerimeter=0;strokeWidth=4;startArrow=classic;startFill=0;endArrow=none;" parent="1" source="X9o5-AmgWms8p3m6Zrc2-40" target="X9o5-AmgWms8p3m6Zrc2-50" edge="1">
          <mxGeometry relative="1" as="geometry" />
        </mxCell>
        <mxCell id="X9o5-AmgWms8p3m6Zrc2-40" value="" style="ellipse;whiteSpace=wrap;html=1;gradientColor=none;fillColor=none;" parent="1" vertex="1">
          <mxGeometry x="714" y="683" width="208" height="120" as="geometry" />
        </mxCell>
        <mxCell id="X9o5-AmgWms8p3m6Zrc2-41" value="&lt;b&gt;DHP数据经纪器&lt;/b&gt;&lt;div&gt;&lt;b&gt;（NHP-DB）&lt;/b&gt;&lt;/div&gt;" style="text;html=1;align=center;verticalAlign=middle;whiteSpace=wrap;rounded=0;" parent="1" vertex="1">
          <mxGeometry x="757" y="700" width="120" height="39" as="geometry" />
        </mxCell>
        <mxCell id="X9o5-AmgWms8p3m6Zrc2-43" value="" style="group" parent="1" vertex="1" connectable="0">
          <mxGeometry x="1004" y="755" width="90" height="40" as="geometry" />
        </mxCell>
        <mxCell id="X9o5-AmgWms8p3m6Zrc2-44" value="" style="rounded=0;whiteSpace=wrap;html=1;strokeWidth=1;fillColor=none;align=center;" parent="X9o5-AmgWms8p3m6Zrc2-43" vertex="1">
          <mxGeometry width="90" height="40" as="geometry" />
        </mxCell>
        <mxCell id="X9o5-AmgWms8p3m6Zrc2-45" value="&lt;b&gt;零信任数据对象ZTDO&lt;/b&gt;" style="text;html=1;align=center;verticalAlign=middle;whiteSpace=wrap;rounded=0;" parent="X9o5-AmgWms8p3m6Zrc2-43" vertex="1">
          <mxGeometry x="6" y="9" width="84" height="24" as="geometry" />
        </mxCell>
        <mxCell id="X9o5-AmgWms8p3m6Zrc2-48" value="" style="group" parent="1" vertex="1" connectable="0">
          <mxGeometry x="1014" y="704" width="70" height="30" as="geometry" />
        </mxCell>
        <mxCell id="X9o5-AmgWms8p3m6Zrc2-51" value="" style="group" parent="X9o5-AmgWms8p3m6Zrc2-48" vertex="1" connectable="0">
          <mxGeometry x="-3" width="70" height="30" as="geometry" />
        </mxCell>
        <mxCell id="X9o5-AmgWms8p3m6Zrc2-49" value="" style="rounded=0;whiteSpace=wrap;html=1;strokeWidth=1;fillColor=none;align=center;" parent="X9o5-AmgWms8p3m6Zrc2-51" vertex="1">
          <mxGeometry x="2" width="60" height="30" as="geometry" />
        </mxCell>
        <mxCell id="X9o5-AmgWms8p3m6Zrc2-50" value="&lt;b&gt;原始数据&lt;/b&gt;" style="text;html=1;align=center;verticalAlign=middle;whiteSpace=wrap;rounded=0;" parent="X9o5-AmgWms8p3m6Zrc2-51" vertex="1">
          <mxGeometry y="4" width="70" height="24" as="geometry" />
        </mxCell>
        <mxCell id="X9o5-AmgWms8p3m6Zrc2-55" style="edgeStyle=orthogonalEdgeStyle;rounded=0;orthogonalLoop=1;jettySize=auto;html=1;exitX=0.5;exitY=1;exitDx=0;exitDy=0;" parent="1" source="X9o5-AmgWms8p3m6Zrc2-39" target="X9o5-AmgWms8p3m6Zrc2-39" edge="1">
          <mxGeometry relative="1" as="geometry" />
        </mxCell>
        <mxCell id="X9o5-AmgWms8p3m6Zrc2-56" style="edgeStyle=orthogonalEdgeStyle;rounded=0;orthogonalLoop=1;jettySize=auto;html=1;exitX=0;exitY=0.5;exitDx=0;exitDy=0;strokeWidth=4;startArrow=classic;startFill=0;endArrow=none;entryX=0.93;entryY=0.765;entryDx=0;entryDy=0;entryPerimeter=0;" parent="1" source="X9o5-AmgWms8p3m6Zrc2-44" target="X9o5-AmgWms8p3m6Zrc2-40" edge="1">
          <mxGeometry relative="1" as="geometry">
            <mxPoint x="910" y="775" as="targetPoint" />
          </mxGeometry>
        </mxCell>
        <mxCell id="X9o5-AmgWms8p3m6Zrc2-58" value="&lt;b&gt;数据资源提供方&lt;/b&gt;" style="text;html=1;align=center;verticalAlign=middle;whiteSpace=wrap;rounded=0;" parent="1" vertex="1">
          <mxGeometry x="1031.03" y="280" width="105" height="30" as="geometry" />
        </mxCell>
        <mxCell id="X9o5-AmgWms8p3m6Zrc2-59" value="" style="ellipse;shape=cloud;whiteSpace=wrap;html=1;gradientColor=none;fillColor=none;" parent="1" vertex="1">
          <mxGeometry x="951" y="280" width="279" height="336" as="geometry" />
        </mxCell>
        <mxCell id="X9o5-AmgWms8p3m6Zrc2-60" value="&lt;font&gt;&lt;b&gt;授权服务提供商&lt;/b&gt;&lt;/font&gt;&lt;div&gt;&lt;font&gt;&lt;b&gt;（Authorization Service Provider）&lt;/b&gt;&lt;/font&gt;&lt;/div&gt;&lt;div&gt;&lt;b&gt;（认证授权、 密钥访问服务、策略访问服务）&lt;/b&gt;&lt;/div&gt;" style="text;html=1;align=center;verticalAlign=middle;whiteSpace=wrap;rounded=0;" parent="1" vertex="1">
          <mxGeometry x="1006" y="336" width="180" height="120" as="geometry" />
        </mxCell>
        <mxCell id="X9o5-AmgWms8p3m6Zrc2-62" value="认证授权" style="text;html=1;align=center;verticalAlign=middle;whiteSpace=wrap;rounded=0;" parent="1" vertex="1">
          <mxGeometry x="1143" y="505" width="60" height="30" as="geometry" />
        </mxCell>
        <mxCell id="X9o5-AmgWms8p3m6Zrc2-63" value="" style="sketch=0;outlineConnect=0;fontColor=#232F3E;gradientColor=none;fillColor=light-dark(#000000, #61820b);strokeColor=none;dashed=0;verticalLabelPosition=bottom;verticalAlign=top;align=center;html=1;fontSize=12;fontStyle=0;aspect=fixed;pointerEvents=1;shape=mxgraph.aws4.policy;" parent="1" vertex="1">
          <mxGeometry x="1085.97" y="462.5" width="50.06" height="43" as="geometry" />
        </mxCell>
        <mxCell id="X9o5-AmgWms8p3m6Zrc2-64" value="策略访问服务" style="text;html=1;align=center;verticalAlign=middle;whiteSpace=wrap;rounded=0;" parent="1" vertex="1">
          <mxGeometry x="1076.03" y="513" width="60" height="30" as="geometry" />
        </mxCell>
        <mxCell id="X9o5-AmgWms8p3m6Zrc2-66" value="" style="sketch=0;verticalLabelPosition=bottom;sketch=0;aspect=fixed;html=1;verticalAlign=top;strokeColor=none;fillColor=#000000;align=center;outlineConnect=0;pointerEvents=1;shape=mxgraph.citrix2.citrix_federated_authentication_service2;" parent="1" vertex="1">
          <mxGeometry x="1148" y="468.95000000000005" width="50" height="30.095" as="geometry" />
        </mxCell>
        <mxCell id="X9o5-AmgWms8p3m6Zrc2-67" value="" style="sketch=0;outlineConnect=0;fontColor=#232F3E;gradientColor=none;fillColor=#000000;strokeColor=none;dashed=0;verticalLabelPosition=bottom;verticalAlign=top;align=center;html=1;fontSize=12;fontStyle=0;aspect=fixed;pointerEvents=1;shape=mxgraph.aws4.key_management_service_external_key_store;" parent="1" vertex="1">
          <mxGeometry x="1017.97" y="458" width="45" height="45" as="geometry" />
        </mxCell>
        <mxCell id="X9o5-AmgWms8p3m6Zrc2-68" value="密钥管理服务" style="text;html=1;align=center;verticalAlign=middle;whiteSpace=wrap;rounded=0;" parent="1" vertex="1">
          <mxGeometry x="1016" y="513" width="60" height="30" as="geometry" />
        </mxCell>
        <mxCell id="X9o5-AmgWms8p3m6Zrc2-70" style="edgeStyle=orthogonalEdgeStyle;rounded=0;orthogonalLoop=1;jettySize=auto;html=1;exitX=1;exitY=0.871;exitDx=0;exitDy=0;endArrow=block;endFill=0;startArrow=block;startFill=0;strokeWidth=2;exitPerimeter=0;entryX=0.345;entryY=0.855;entryDx=0;entryDy=0;entryPerimeter=0;" parent="1" source="X9o5-AmgWms8p3m6Zrc2-32" target="X9o5-AmgWms8p3m6Zrc2-59" edge="1">
          <mxGeometry relative="1" as="geometry">
            <mxPoint x="1040" y="570" as="targetPoint" />
          </mxGeometry>
        </mxCell>
        <mxCell id="X9o5-AmgWms8p3m6Zrc2-71" style="edgeStyle=orthogonalEdgeStyle;rounded=0;orthogonalLoop=1;jettySize=auto;html=1;exitX=0.965;exitY=0.305;exitDx=0;exitDy=0;exitPerimeter=0;strokeWidth=4;" parent="1" edge="1">
          <mxGeometry relative="1" as="geometry">
            <mxPoint x="351" y="823" as="sourcePoint" />
            <mxPoint x="540" y="823" as="targetPoint" />
          </mxGeometry>
        </mxCell>
        <mxCell id="X9o5-AmgWms8p3m6Zrc2-72" value="&lt;font style=&quot;font-size: 14px;&quot;&gt;&lt;b style=&quot;&quot;&gt;数据&lt;/b&gt;&lt;/font&gt;" style="edgeLabel;html=1;align=center;verticalAlign=middle;resizable=0;points=[];" parent="X9o5-AmgWms8p3m6Zrc2-71" vertex="1" connectable="0">
          <mxGeometry x="-0.0653" y="-2" relative="1" as="geometry">
            <mxPoint as="offset" />
          </mxGeometry>
        </mxCell>
        <mxCell id="X9o5-AmgWms8p3m6Zrc2-75" style="edgeStyle=orthogonalEdgeStyle;rounded=0;orthogonalLoop=1;jettySize=auto;html=1;exitX=1;exitY=0.75;exitDx=0;exitDy=0;endArrow=block;endFill=0;startArrow=block;startFill=0;strokeWidth=2;" parent="1" edge="1">
          <mxGeometry relative="1" as="geometry">
            <mxPoint x="354.5" y="778.37" as="sourcePoint" />
            <mxPoint x="540" y="778" as="targetPoint" />
          </mxGeometry>
        </mxCell>
        <mxCell id="X9o5-AmgWms8p3m6Zrc2-76" value="&lt;font style=&quot;font-size: 14px;&quot;&gt;&lt;b&gt;支撑服务&lt;/b&gt;&lt;/font&gt;" style="edgeLabel;html=1;align=center;verticalAlign=middle;resizable=0;points=[];" parent="X9o5-AmgWms8p3m6Zrc2-75" vertex="1" connectable="0">
          <mxGeometry x="-0.0094" relative="1" as="geometry">
            <mxPoint x="1" as="offset" />
          </mxGeometry>
        </mxCell>
        <mxCell id="X9o5-AmgWms8p3m6Zrc2-77" value="" style="endArrow=classic;startArrow=classic;html=1;rounded=0;strokeWidth=2;" parent="1" edge="1">
          <mxGeometry width="50" height="50" relative="1" as="geometry">
            <mxPoint x="355" y="729" as="sourcePoint" />
            <mxPoint x="540" y="728" as="targetPoint" />
          </mxGeometry>
        </mxCell>
        <mxCell id="X9o5-AmgWms8p3m6Zrc2-78" value="&lt;font style=&quot;font-size: 14px;&quot;&gt;&lt;b&gt;NHP控制消息&lt;/b&gt;&lt;/font&gt;" style="edgeLabel;html=1;align=center;verticalAlign=middle;resizable=0;points=[];" parent="X9o5-AmgWms8p3m6Zrc2-77" vertex="1" connectable="0">
          <mxGeometry x="-0.0527" relative="1" as="geometry">
            <mxPoint as="offset" />
          </mxGeometry>
        </mxCell>
        <mxCell id="UsX--a53koK76Qtb-EmN-2" value="" style="endArrow=block;startArrow=block;html=1;rounded=0;entryX=0.507;entryY=0.945;entryDx=0;entryDy=0;entryPerimeter=0;strokeWidth=2;endFill=0;startFill=0;" parent="1" target="X9o5-AmgWms8p3m6Zrc2-59" edge="1">
          <mxGeometry width="50" height="50" relative="1" as="geometry">
            <mxPoint x="1035.97" y="660" as="sourcePoint" />
            <mxPoint x="1085.97" y="610" as="targetPoint" />
          </mxGeometry>
        </mxCell>
        <mxCell id="00Q6gjnknBjYlm8V0BdB-1" value="" style="endArrow=classic;startArrow=classic;html=1;rounded=0;strokeWidth=2;entryX=0.5;entryY=1;entryDx=0;entryDy=0;exitX=0.5;exitY=0;exitDx=0;exitDy=0;" parent="1" source="X9o5-AmgWms8p3m6Zrc2-40" target="X9o5-AmgWms8p3m6Zrc2-32" edge="1">
          <mxGeometry width="50" height="50" relative="1" as="geometry">
            <mxPoint x="818" y="680" as="sourcePoint" />
            <mxPoint x="817.5" y="606" as="targetPoint" />
          </mxGeometry>
        </mxCell>
        <mxCell id="7fRCf4hUROZ-UjwyHdyP-1" value="" style="ellipse;shape=cloud;whiteSpace=wrap;html=1;align=center;fillColor=none;" parent="1" vertex="1">
          <mxGeometry x="967.03" y="154" width="245.97" height="110" as="geometry" />
        </mxCell>
        <mxCell id="7fRCf4hUROZ-UjwyHdyP-2" value="&lt;b&gt;NHP服务器与DHP DE的访问记录、流量日志、安全日志等&lt;/b&gt;" style="text;html=1;align=left;verticalAlign=middle;whiteSpace=wrap;rounded=0;" parent="1" vertex="1">
          <mxGeometry x="1010" y="196" width="176" height="30" as="geometry" />
        </mxCell>
        <mxCell id="7fRCf4hUROZ-UjwyHdyP-3" value="" style="endArrow=block;startArrow=none;html=1;rounded=0;strokeWidth=2;endFill=0;startFill=0;exitX=0.692;exitY=0.004;exitDx=0;exitDy=0;exitPerimeter=0;entryX=0.08;entryY=0.5;entryDx=0;entryDy=0;entryPerimeter=0;" parent="1" source="X9o5-AmgWms8p3m6Zrc2-32" target="7fRCf4hUROZ-UjwyHdyP-1" edge="1">
          <mxGeometry width="50" height="50" relative="1" as="geometry">
            <mxPoint x="809.97" y="396" as="sourcePoint" />
            <mxPoint x="872" y="332" as="targetPoint" />
            <Array as="points">
              <mxPoint x="857" y="209" />
            </Array>
          </mxGeometry>
        </mxCell>
        <mxCell id="bTAu7iylD1c1os6TPvXB-4" style="edgeStyle=orthogonalEdgeStyle;rounded=0;orthogonalLoop=1;jettySize=auto;html=1;entryX=0.54;entryY=1.102;entryDx=0;entryDy=0;strokeWidth=4;exitX=0.875;exitY=0.077;exitDx=0;exitDy=0;exitPerimeter=0;entryPerimeter=0;" parent="1" target="X9o5-AmgWms8p3m6Zrc2-25" edge="1">
          <mxGeometry relative="1" as="geometry">
            <Array as="points" />
            <mxPoint x="499" y="482.00299999999993" as="sourcePoint" />
            <mxPoint x="499" y="416.05" as="targetPoint" />
          </mxGeometry>
        </mxCell>
        <mxCell id="bTAu7iylD1c1os6TPvXB-12" value="数据策略执行器" style="rounded=0;whiteSpace=wrap;html=1;fillColor=none;dashed=1;" parent="1" vertex="1">
          <mxGeometry x="768" y="751" width="100" height="20" as="geometry" />
        </mxCell>
        <mxCell id="X9o5-AmgWms8p3m6Zrc2-23" value="" style="group" parent="1" vertex="1" connectable="0">
          <mxGeometry x="450" y="406" width="90" height="40" as="geometry" />
        </mxCell>
        <mxCell id="X9o5-AmgWms8p3m6Zrc2-47" value="" style="group" parent="X9o5-AmgWms8p3m6Zrc2-23" vertex="1" connectable="0">
          <mxGeometry x="6.75" width="78.75" height="30" as="geometry" />
        </mxCell>
        <mxCell id="X9o5-AmgWms8p3m6Zrc2-24" value="" style="rounded=0;whiteSpace=wrap;html=1;strokeWidth=1;fillColor=none;align=center;" parent="X9o5-AmgWms8p3m6Zrc2-47" vertex="1">
          <mxGeometry x="4.5" width="67.5" height="30" as="geometry" />
        </mxCell>
        <mxCell id="X9o5-AmgWms8p3m6Zrc2-25" value="&lt;b&gt;处理后数据&lt;/b&gt;" style="text;html=1;align=center;verticalAlign=middle;whiteSpace=wrap;rounded=0;" parent="X9o5-AmgWms8p3m6Zrc2-47" vertex="1">
          <mxGeometry y="4" width="78.75" height="24" as="geometry" />
        </mxCell>
        <mxCell id="X9o5-AmgWms8p3m6Zrc2-7" value="&lt;b&gt;可信执行环境&lt;/b&gt;" style="text;html=1;align=center;verticalAlign=middle;whiteSpace=wrap;rounded=0;fontSize=14;" parent="X9o5-AmgWms8p3m6Zrc2-23" vertex="1">
          <mxGeometry x="-61.02999999999997" y="-117" width="110" height="30" as="geometry" />
        </mxCell>
        <mxCell id="f-TEMgH-XGFlBcZfZV_i-1" value="" style="endArrow=none;dashed=1;html=1;rounded=0;" edge="1" parent="1">
          <mxGeometry width="50" height="50" relative="1" as="geometry">
            <mxPoint x="966" y="271" as="sourcePoint" />
            <mxPoint x="1220" y="270" as="targetPoint" />
          </mxGeometry>
        </mxCell>
        <mxCell id="f-TEMgH-XGFlBcZfZV_i-3" value="&lt;b&gt;数据资源监管方&lt;/b&gt;" style="text;html=1;align=center;verticalAlign=middle;whiteSpace=wrap;rounded=0;" vertex="1" parent="1">
          <mxGeometry x="1031.03" y="124" width="105" height="30" as="geometry" />
        </mxCell>
        <mxCell id="f-TEMgH-XGFlBcZfZV_i-4" value="&lt;b&gt;DHP服务&lt;/b&gt;" style="text;html=1;align=center;verticalAlign=middle;whiteSpace=wrap;rounded=0;" vertex="1" parent="1">
          <mxGeometry x="742" y="124" width="105" height="30" as="geometry" />
        </mxCell>
      </root>
    </mxGraphModel>
  </diagram>
</mxfile>
